<svg xmlns:xlink="http://www.w3.org/1999/xlink" width="32" height="45.25714285714286" viewBox="0 0 210 297" xmlns="http://www.w3.org/2000/svg"><defs><clipPath id="a"><path d="m0 1080h1080v-1080h-1080z"></path></clipPath></defs><g transform="matrix(.35278 0 0 -.35278 -85.423 340.93)" clip-path="url(#a)"><g transform="translate(454.94 582.99)"><path d="m0 0c-11.83 0-21.932 4.183-30.29 12.545-8.365 8.365-12.548 18.459-12.548 30.293v86.282c0 11.83 4.183 21.827 12.548 29.983 8.358 8.16 18.46 12.241 30.29 12.241h214.18v-171.34zm220.91-204.08c15.504 6.731 29.064 16.013 40.691 27.843 11.629 11.83 20.808 25.497 27.537 41.001 6.733 15.5 10.1 32.228 10.1 50.178v342.07h-299.24c-17.951 0-34.675-3.364-50.179-10.094-15.504-6.734-29.167-15.912-41.004-27.54-11.83-11.624-21.108-25.19-27.842-40.694-6.728-15.5-10.095-32.022-10.095-49.565v-86.282c0-17.951 3.367-34.678 10.095-50.182 6.734-15.5 16.012-28.965 27.842-40.387 11.837-11.423 25.5-20.499 41.004-27.23s32.228-10.098 50.179-10.098h214.18c0-11.83-4.184-21.928-12.542-30.289-8.365-8.365-18.46-12.545-30.29-12.545h-300.46v-215.09h193.98v19.639c0 36.132-29.291 65.424-65.424 65.424h-43.498v43.746h149.31v-128.81h193.98v19.639c0 36.132-29.291 65.424-65.424 65.424h-43.497v45.121c10.604 1.566 20.801 4.471 30.593 8.722" fill="#EEEEEE" stroke="#EEEEEE"></path></g><g transform="translate(605.32 722.43)"><path d="m0 0c-17.615 0-31.896-14.281-31.896-31.896v-1e-3c0-17.616 14.281-31.896 31.896-31.896 17.617 0 31.897 14.28 31.897 31.896v1e-3c0 17.615-14.28 31.896-31.897 31.896" fill="#EEEEEE" stroke="#EEEEEE"></path></g><g transform="translate(525.58 722.43)"><path d="m0 0c-17.615 0-31.896-14.281-31.896-31.896v-1e-3c0-17.616 14.281-31.896 31.896-31.896 17.617 0 31.897 14.28 31.897 31.896v1e-3c0 17.615-14.28 31.896-31.897 31.896" fill="#EEEEEE" stroke="#EEEEEE"></path></g></g></svg>